# xmcd CD database file
#
# Track frame offsets:
#	150
#	14325
#	28500
#	43580
#	56330
#	67512
#	77597
#	91772
#	104610
#	119577
#	132835
#	146825
#	162097
#	175305
#	190185
#	203777
#	217609
#	233642
#	252184
#	268105
#	286130
#	304215
#
# Disc length: 4228 seconds
#
# Revision: 1
# Processed by: cddbd v1.5.2PL0 Copyright (c) Steve Scherf et al.
# Submitted via: CDex 1.70beta2
#
DISCID=27108216
DTITLE=ChartBreakers - ChartBreakers CGC-542
DYEAR=1900
DGENRE=Country
TTITLE0=Ronnie Milsap - Snap Your fingers
TTITLE1=Barbara Mandrell - (If Loving You Is Wrong) I Don't Want To Be Right
TTITLE2=Earl Thomas Conley - Love Don't Care (Whose Heart It Breaks)
TTITLE3=Don Williams - Some Broken Hearts Never Mend
TTITLE4=Johnny Lee and Lane Brody - The Yellow Rose
TTITLE5=Linda Ronstadt - When Will I Be Loved
TTITLE6=Crystal Gayle - You Never Gave Up On Me
TTITLE7=George Jones - White Lightnin'
TTITLE8=George Jones - Who's Gonna Fill Their Shoes
TTITLE9=Oak Ridge Boys - Y'all Come Back Saloon
TTITLE10=Conway Twitty - You've Never Been This Far Before
TTITLE11=Ricky Van Shelton - Somebody Lied
TTITLE12=Johnny Lee - Sound Like Love
TTITLE13=Emmylou Harris - In My Dreams
TTITLE14=Larry Gatlin and The Gatlin Brothers - Love Of A Lifetime
TTITLE15=Ronnie Milsap - (I'm A) Stand By My Woman Man
TTITLE16=Don Williams - Then It's Love
TTITLE17=Confederate Railroad - When You Leave That Way You Can Never Go Back
TTITLE18=Eddy Raven - You Should Have Gone By Now
TTITLE19=Ronnie Milsap - Inside
TTITLE20=Oak Ridge Boys - It Takes A Little Rain (To Make Love Grow)
TTITLE21=Kenny Rogers - Love Or Something Like It
EXTD=YEAR: 1900
EXTT0=
EXTT1=
EXTT2=
EXTT3=
EXTT4=
EXTT5=
EXTT6=
EXTT7=
EXTT8=
EXTT9=
EXTT10=
EXTT11=
EXTT12=
EXTT13=
EXTT14=
EXTT15=
EXTT16=
EXTT17=
EXTT18=
EXTT19=
EXTT20=
EXTT21=
PLAYORDER=
